<svg width="1964" height="1866" viewBox="0 0 1964 1866" fill="none" xmlns="http://www.w3.org/2000/svg">
<path d="M1701.77 2.41391e-05C1645.12 -0.0243012 1590 18.3368 1544.69 52.3235C1499.38 86.3103 1466.32 134.086 1450.49 188.471C1434.65 242.855 1436.9 300.91 1456.89 353.909C1476.87 406.907 1513.52 451.986 1561.33 482.371L1390.56 1080.07C1385.29 1079.75 1379.99 1079.54 1374.63 1079.54C1318.34 1079.48 1263.54 1097.67 1218.46 1131.38L902.959 868.47C917.896 824.154 920.684 776.645 911.035 730.886C901.386 685.127 879.652 642.789 848.093 608.277C816.535 573.765 776.305 548.34 731.589 534.647C686.873 520.954 639.305 519.493 593.833 530.416C548.361 541.339 506.647 564.247 473.03 596.756C439.412 629.266 415.12 670.19 402.681 715.271C390.242 760.352 390.109 807.942 402.297 853.091C414.486 898.241 438.55 939.299 471.985 971.996L286.779 1342.43C278.735 1341.68 270.61 1341.25 262.379 1341.25C199.682 1341.17 139.035 1363.57 91.4452 1404.39C43.8554 1445.2 12.4776 1501.73 3.00728 1563.71C-6.46306 1625.69 6.60181 1689 39.8304 1742.17C73.0591 1795.34 124.249 1834.83 184.108 1853.47C243.968 1872.12 308.529 1868.69 366.073 1843.8C423.617 1818.91 470.329 1774.21 497.732 1717.82C525.134 1661.43 531.409 1597.08 515.419 1536.46C499.429 1475.83 462.233 1422.95 410.582 1387.41L585.599 1037.43C628.113 1049.15 672.905 1049.92 715.796 1039.66C758.687 1029.39 798.278 1008.43 830.875 978.722L1136.34 1233.28C1115.59 1278.99 1108.43 1329.7 1115.71 1379.37C1122.99 1429.04 1144.4 1475.56 1177.39 1513.4C1210.37 1551.24 1253.54 1578.79 1301.75 1592.77C1349.97 1606.76 1401.18 1606.58 1449.29 1592.26C1497.4 1577.95 1540.39 1550.1 1573.11 1512.03C1605.83 1473.97 1626.92 1427.29 1633.85 1377.58C1640.79 1327.86 1633.28 1277.2 1612.22 1231.63C1591.16 1186.07 1557.44 1147.52 1515.08 1120.58L1685.84 522.882C1691.11 523.201 1696.41 523.414 1701.77 523.414C1771.18 523.414 1837.74 495.841 1886.82 446.762C1935.9 397.682 1963.47 331.116 1963.47 261.707C1963.47 192.298 1935.9 125.732 1886.82 76.6522C1837.74 27.5726 1771.18 2.41391e-05 1701.77 2.41391e-05ZM262.379 1733.81C236.498 1733.81 211.199 1726.13 189.68 1711.76C168.162 1697.38 151.39 1676.94 141.486 1653.03C131.582 1629.12 128.99 1602.81 134.039 1577.43C139.088 1552.04 151.551 1528.73 169.851 1510.43C188.151 1492.13 211.467 1479.66 236.85 1474.62C262.233 1469.57 288.544 1472.16 312.454 1482.06C336.364 1491.97 356.801 1508.74 371.179 1530.26C385.558 1551.78 393.232 1577.07 393.232 1602.95C393.193 1637.65 379.394 1670.91 354.863 1695.44C330.332 1719.97 297.071 1733.77 262.379 1733.81ZM654.939 915.974C629.058 915.974 603.759 908.3 582.241 893.921C560.722 879.543 543.95 859.106 534.046 835.196C524.142 811.286 521.551 784.975 526.6 759.592C531.649 734.209 544.111 710.893 562.411 692.593C580.712 674.293 604.028 661.831 629.411 656.781C654.794 651.732 681.104 654.324 705.014 664.228C728.925 674.132 749.361 690.904 763.739 712.422C778.118 733.941 785.792 759.24 785.792 785.121C785.753 819.813 771.955 853.074 747.423 877.605C722.892 902.136 689.631 915.935 654.939 915.974ZM1374.63 1472.1C1348.75 1472.1 1323.45 1464.43 1301.93 1450.05C1280.42 1435.67 1263.64 1415.23 1253.74 1391.32C1243.84 1367.41 1241.24 1341.1 1246.29 1315.72C1251.34 1290.34 1263.81 1267.02 1282.11 1248.72C1300.41 1230.42 1323.72 1217.96 1349.1 1212.91C1374.49 1207.86 1400.8 1210.45 1424.71 1220.35C1448.62 1230.26 1469.06 1247.03 1483.43 1268.55C1497.81 1290.07 1505.49 1315.37 1505.49 1341.25C1505.45 1375.94 1491.65 1409.2 1467.12 1433.73C1442.59 1458.26 1409.33 1472.06 1374.63 1472.1ZM1701.77 392.56C1675.89 392.56 1650.59 384.886 1629.07 370.508C1607.55 356.129 1590.78 335.693 1580.87 311.782C1570.97 287.872 1568.38 261.562 1573.43 236.179C1578.48 210.796 1590.94 187.48 1609.24 169.18C1627.54 150.879 1650.86 138.417 1676.24 133.368C1701.62 128.319 1727.93 130.91 1751.84 140.814C1775.75 150.718 1796.19 167.49 1810.57 189.009C1824.95 210.527 1832.62 235.827 1832.62 261.707C1832.58 296.399 1818.78 329.66 1794.25 354.191C1769.72 378.723 1736.46 392.521 1701.77 392.56Z" fill="black"/>
</svg>
